<svg id="Layer_1" enable-background="new 0 0 512 512" height="512" viewBox="0 0 512 512" width="512" xmlns="http://www.w3.org/2000/svg"><g><path d="m194.412 68.952c-3.111 31.724-33.885 54.436-68.736 50.729s-60.581-32.43-57.469-64.154c3.111-31.724 34.682 14.693 62.035 17.602 27.352 2.91 67.282-35.901 64.17-4.177z" fill="#5bbd4f"/><ellipse cx="130.885" cy="66.567" fill="#64cc56" rx="53.369" ry="31.515" transform="matrix(.093 -.996 .996 .093 52.407 190.677)"/><path d="m133.962 35.189c-4.116-.399-7.792 2.61-8.196 6.732l-7.554 77.027c-.404 4.122 2.61 7.792 6.732 8.196.249.024.496.036.741.036 3.813 0 7.076-2.895 7.456-6.769l7.554-77.027c.404-4.121-2.61-7.791-6.733-8.195z" fill="#50a645"/><path d="m504.603 137.158c-32.028 31.356-87.699 27.692-124.343-8.184s-40.387-90.377-8.359-121.732 26.597 47.565 55.357 75.721 109.373 22.839 77.345 54.195z" fill="#50a645"/><ellipse cx="433.883" cy="76.477" fill="#64cc56" rx="75.053" ry="46.099" transform="matrix(.724 -.69 .69 .724 67.172 320.662)"/><path d="m487.506 23.98c-9.698-9.494-25.235-11.353-42.116-6.634 3.983 1.507 7.549 3.699 10.547 6.634 18.199 17.817 8.945 55.765-20.67 84.758-13.834 13.543-29.663 22.734-44.46 26.871 20.186 7.641 51.293-2.655 76.028-26.871 29.616-28.994 38.87-66.941 20.671-84.758z" fill="#5bbd4f"/><path d="m464.462 47.538c-2.929-2.929-7.678-2.929-10.606 0l-83.581 83.581c-2.929 2.929-2.929 7.678 0 10.606 1.464 1.464 3.384 2.197 5.303 2.197s3.839-.732 5.303-2.197l83.581-83.581c2.929-2.928 2.929-7.677 0-10.606z" fill="#50a645"/><path d="m191.628 236.059c-10.236 100.217-60.238 246.672-103.019 242.302s-62.143-157.909-51.907-258.126 46.193-109.161 88.974-104.791 76.188 20.398 65.952 120.615z" fill="#fb8c00"/><path d="m125.677 115.444c-10.172-1.039-19.956-1.321-29.102.193 41.911 4.646 74.24 21.618 64.148 120.422-8.825 86.399-47.205 207.15-85.034 236.011 4.034 3.636 8.342 5.824 12.92 6.292 42.782 4.37 92.783-142.086 103.019-242.302 10.236-100.218-23.17-116.246-65.951-120.616z" fill="#f57c00"/><path d="m346.75 324.732c-103.164 103.163-293.273 221.87-337.313 177.831s74.668-234.149 177.832-337.313 151.718-80.316 195.758-36.276 66.886 92.594-36.277 195.758z" fill="#ff9800"/><path d="m394.57 268.69c-2.7 3.95-5.63 8.01-8.81 12.17-10.28 13.46-23.16 28.02-39.01 43.87-5.62 5.62-11.49 11.28-17.59 16.96-3.76 3.51-7.61 7.02-11.53 10.53-21.58 19.34-45.44 38.67-70.1 56.87-4.31 3.19-8.65 6.34-13.01 9.44-29.26 20.89-59.27 39.93-87.62 55.3-5.04 2.74-10.02 5.35-14.94 7.84-55.83 28.23-103.21 40.2-122.52 20.89-18.77-18.77-7.98-64.08 18.58-117.88 2.42-4.91 4.97-9.89 7.64-14.92 15.12-28.46 34.09-58.74 55.02-88.37 3.15-4.45 6.34-8.89 9.57-13.31 17.7-24.2 36.53-47.7 55.44-69.13 3.59-4.06 7.18-8.04 10.76-11.94 6.97-7.6 13.93-14.87 20.82-21.76 15.29-15.29 29.38-27.81 42.43-37.91 4.19-3.24 8.28-6.23 12.26-8.98 67.31-46.51 105.65-24.81 141.07 10.61 35.18 35.18 56.83 73.24 11.54 139.72z" fill="#ff9800"/><path d="m383.026 128.974c-24.714-24.714-50.853-42.75-87.264-35.592 21.431 4.556 39.237 18.47 56.359 35.592 44.04 44.04 66.887 92.594-36.276 195.758-81.4 81.4-216.93 172.476-292.125 185.648 61.499 16.121 228.649-91.267 323.03-185.648 103.163-103.164 80.316-151.719 36.276-195.758z" fill="#fb8c00"/><g fill="#ef6c00"><path d="m394.57 268.69c-2.7 3.95-5.63 8.01-8.81 12.17-93.39-60.16-136.32-115.53-156.06-153.52 4.19-3.24 8.28-6.23 12.26-8.98 15.71 30.96 55.5 87.9 152.61 150.33z"/><path d="m329.16 341.69c-3.76 3.51-7.61 7.02-11.53 10.53-47.29-29.03-86.39-59.78-116.27-91.43-19.65-20.81-34.97-41.57-45.67-61.84 3.59-4.06 7.18-8.04 10.76-11.94 15.24 31.06 56.16 90.04 162.71 154.68z"/><path d="m247.53 409.09c-4.31 3.19-8.65 6.34-13.01 9.44-81.24-53.09-122.75-102.33-143.84-137.14 3.15-4.45 6.34-8.89 9.57-13.31 19.38 34.15 60.51 85.25 147.28 141.01z"/><path d="m146.9 473.83c-5.04 2.74-10.02 5.35-14.94 7.84-43.95-31.15-78.84-63.71-103.94-96.99 2.42-4.91 4.97-9.89 7.64-14.92 25.51 35.63 62.91 70.62 111.24 104.07z"/></g></g></svg>