<?xml version="1.0" encoding="iso-8859-1"?>
<!-- Generator: Adobe Illustrator 19.0.0, SVG Export Plug-In . SVG Version: 6.00 Build 0)  -->
<svg version="1.1" id="Layer_1" xmlns="http://www.w3.org/2000/svg" xmlns:xlink="http://www.w3.org/1999/xlink" x="0px" y="0px"
	 viewBox="0 0 512 512" style="enable-background:new 0 0 512 512;" xml:space="preserve">
<path style="fill:#F04C35;" d="M433.942,169.238c-1.458-2.155-30.485-44.188-77.314-44.188c-9.999,0-20.186,1.941-30.279,5.768
	c-43.428,16.468-61.37,18.247-67.068,18.247c-0.899,0-1.486-0.045-1.865-0.086l-1.417-0.151l-1.463,0.156
	c-2.429,0.265-18.566,0.917-68.887-18.166c-10.091-3.827-20.278-5.768-30.278-5.768c-46.779,0-75.297,41.185-77.309,44.184
	c-38.615,52.867-34.269,118.991-23.814,165.164c12.51,55.244,38.445,105.601,58.546,134.306
	C132.913,497.432,155.383,512,179.578,512c14.112,0,25.215-5.278,30.579-8.425c9.918-5.818,29.884-9.362,39.342-10.462h13.003
	c9.443,1.1,29.426,4.646,39.345,10.466c5.363,3.145,16.468,8.419,30.576,8.421h0.001c24.195,0,46.663-14.568,66.782-43.297
	c20.098-28.703,46.035-79.06,58.545-134.306C468.206,288.232,472.556,222.125,433.942,169.238z"/>
<g style="opacity:0.19;">
	<path style="fill:#202121;" d="M153.627,468.703c-20.101-28.705-46.036-79.062-58.546-134.306
		c-10.455-46.173-14.803-112.297,23.812-165.164c1.702-2.535,22.342-32.348,56.94-41.515c-6.848-1.758-13.697-2.668-20.463-2.668
		c-46.779,0-75.297,41.185-77.309,44.184c-38.615,52.867-34.269,118.991-23.814,165.164c12.51,55.244,38.445,105.601,58.546,134.306
		C132.913,497.432,155.383,512,179.578,512c7.87,0,14.801-1.643,20.326-3.641C183.439,502.402,167.938,489.138,153.627,468.703z"/>
</g>
<path style="fill:#75C04D;" d="M414.828,12.759c-0.041-5.237-3.753-9.724-8.889-10.744l-1.863-0.371
	C398.613,0.552,392.936,0,387.201,0c-22.746,0-45.564,8.514-64.253,23.97c-23.482,19.421-37.373,47.644-37.156,75.5l0.018,1.909
	c0.042,5.232,3.75,9.715,8.882,10.74l1.874,0.373c5.46,1.087,11.136,1.639,16.868,1.641c0.001,0,0.001,0,0.001,0
	c22.749,0,45.568-8.516,64.254-23.973c23.483-19.419,37.374-47.641,37.154-75.496L414.828,12.759z"/>
<path style="opacity:0.19;fill:#202121;enable-background:new    ;" d="M306.412,107.948l-0.013-1.702
	c-0.194-24.866,12.204-50.057,33.163-67.391c16.682-13.798,37.051-21.397,57.352-21.397c5.121,0,10.188,0.494,15.063,1.467
	l1.665,0.33c0.373,0.075,0.736,0.177,1.091,0.292c0.084-1.627,0.123-3.255,0.11-4.881l-0.015-1.907
	c-0.041-5.237-3.753-9.724-8.889-10.744l-1.863-0.371C398.613,0.552,392.936,0,387.201,0c-22.746,0-45.564,8.514-64.253,23.97
	c-23.482,19.421-37.373,47.644-37.156,75.5l0.018,1.909c0.042,5.232,3.75,9.715,8.882,10.74l1.874,0.373
	c3.902,0.776,7.918,1.268,11.984,1.493C307.221,112.311,306.43,110.211,306.412,107.948z"/>
<path style="fill:#485D6D;" d="M252.516,125.342c-4.166,0-7.753-3.134-8.222-7.373c-4.036-36.485-21.876-79.978-83.934-79.978
	c-4.574,0-8.283-3.707-8.283-8.283c0-4.574,3.708-8.283,8.283-8.283c34.298,0,60.639,11.706,78.291,34.792
	c14.958,19.562,20.278,43.387,22.109,59.93c0.504,4.547-2.774,8.641-7.321,9.143C253.128,125.324,252.821,125.342,252.516,125.342z"
	/>
<g>
</g>
<g>
</g>
<g>
</g>
<g>
</g>
<g>
</g>
<g>
</g>
<g>
</g>
<g>
</g>
<g>
</g>
<g>
</g>
<g>
</g>
<g>
</g>
<g>
</g>
<g>
</g>
<g>
</g>
</svg>
