<?xml version="1.0" encoding="iso-8859-1"?>
<!-- Generator: Adobe Illustrator 19.0.0, SVG Export Plug-In . SVG Version: 6.00 Build 0)  -->
<svg version="1.1" id="Capa_1" xmlns="http://www.w3.org/2000/svg" xmlns:xlink="http://www.w3.org/1999/xlink" x="0px" y="0px"
	 viewBox="0 0 512 512" style="enable-background:new 0 0 512 512;" xml:space="preserve">
<path style="fill:#1D304A;" d="M509.824,258.176c0,30.563-5.398,59.861-15.302,86.994
	c-20.223,55.448-59.229,101.851-109.331,131.533c-11.738,6.962-24.077,12.992-36.934,18.016
	c-24.844,9.687-51.583,15.582-79.514,16.96C264.516,511.896,260.268,512,256,512C115.816,512,2.176,398.359,2.176,258.176
	c0-84.539,41.327-159.422,104.886-205.556c18.856-13.686,39.669-24.844,61.943-32.966C196.139,9.749,225.437,4.351,256,4.351
	C396.184,4.351,509.824,117.992,509.824,258.176z"/>
<path style="fill:#4AC688;" d="M494.522,345.17c-20.223,55.448-59.229,101.851-109.331,131.533
	c-11.738,6.962-24.077,12.992-36.934,18.016c-24.844,9.687-51.583,15.582-79.514,16.96c-17.384-5.874-34.344-13.334-50.661-22.399
	c-24.636-13.665-47.812-30.956-68.729-51.884C44.86,332.914,30.759,172.269,107.062,52.619C118.956,33.961,133.056,16.297,149.352,0
	l23.02,23.02l12.836,12.836L394.06,244.707L494.522,345.17z"/>
<path style="fill:#32A066;" d="M494.522,345.17c-20.223,55.448-59.229,101.851-109.331,131.533
	c-11.738,6.962-24.077,12.992-36.934,18.016c-24.844,9.687-51.583,15.582-79.514,16.96c-17.384-5.874-34.344-13.334-50.661-22.399
	C436.195,382.197,394.06,244.707,394.06,244.707L494.522,345.17z"/>
<path style="fill:#F9739C;" d="M494.522,345.17c-20.223,55.448-59.229,101.851-109.331,131.533
	c-11.738,6.962-24.077,12.992-36.934,18.016c-64.088-4.569-126.881-31.34-175.885-80.343
	c-108.067-108.067-108.067-283.289,0-391.356l12.836,12.836L494.522,345.17z"/>
<path style="fill:#EA3D6A;" d="M494.522,345.17c-20.223,55.448-59.229,101.851-109.331,131.533
	c-38.229,2.528-76.914-3.398-113.009-17.799c-11.852-4.714-23.424-10.35-34.613-16.897c-18.7-10.94-36.323-24.429-52.36-40.467
	c-100.981-100.981-100.981-264.703,0-365.683l70.418,70.428l16.701,16.701l0.031,0.021l92.91,92.91l28.791,28.791L494.522,345.17z"
	/>
<g>
	<circle style="fill:#1D304A;" cx="241.33" cy="199.972" r="13.468"/>
	<circle style="fill:#1D304A;" cx="300.487" cy="259.129" r="13.468"/>
	<circle style="fill:#1D304A;" cx="359.643" cy="318.285" r="13.468"/>
	<circle style="fill:#1D304A;" cx="182.173" cy="140.826" r="13.468"/>
</g>
<path style="fill:#D82A60;" d="M494.522,345.17c-20.223,55.448-59.229,101.851-109.331,131.533
	c-38.229,2.528-76.914-3.398-113.009-17.799C428.756,357.934,394.06,244.707,394.06,244.707L494.522,345.17z"/>
<g>
	<circle style="fill:#1D304A;" cx="418.8" cy="377.442" r="13.468"/>
	<circle style="fill:#1D304A;" cx="152.067" cy="228.794" r="13.468"/>
	<circle style="fill:#1D304A;" cx="211.223" cy="287.951" r="13.468"/>
	<circle style="fill:#1D304A;" cx="270.38" cy="347.107" r="13.468"/>
	<circle style="fill:#1D304A;" cx="329.536" cy="406.264" r="13.468"/>
</g>
<g>
</g>
<g>
</g>
<g>
</g>
<g>
</g>
<g>
</g>
<g>
</g>
<g>
</g>
<g>
</g>
<g>
</g>
<g>
</g>
<g>
</g>
<g>
</g>
<g>
</g>
<g>
</g>
<g>
</g>
</svg>
