<?xml version="1.0" encoding="iso-8859-1"?>
<!-- Generator: Adobe Illustrator 19.0.0, SVG Export Plug-In . SVG Version: 6.00 Build 0)  -->
<svg version="1.1" id="Capa_1" xmlns="http://www.w3.org/2000/svg" xmlns:xlink="http://www.w3.org/1999/xlink" x="0px" y="0px"
	 viewBox="0 0 512 512" style="enable-background:new 0 0 512 512;" xml:space="preserve">
<g>
	<path style="fill:#3BB776;" d="M399.221,78.639c-17.789,17.789-53.318,11.099-53.318,11.099s-6.688-35.529,11.099-53.318
		c17.789-17.789,53.318-11.099,53.318-11.099S417.009,60.851,399.221,78.639z"/>
	<path style="fill:#3BB776;" d="M183.296,64.533c-17.789,17.789-53.318,11.099-53.318,11.099s-6.688-35.529,11.099-53.318
		c17.789-17.789,53.318-11.099,53.318-11.099S201.085,46.744,183.296,64.533z"/>
	<path style="fill:#3BB776;" d="M256.836,109.757c-17.788,17.788-53.318,11.099-53.318,11.099s-6.689-35.529,11.099-53.318
		s53.318-11.099,53.318-11.099S274.624,91.969,256.836,109.757z"/>
</g>
<path style="fill:#FFAD61;" d="M458.967,163.168l-13.6,85.853l-31.781,200.587C408.805,479.789,382.794,502,352.233,502H159.766
	c-30.561,0-56.572-22.211-61.352-52.392L66.633,249.021l-13.6-85.853h0.18c4.32,26.501,93.443,47.652,202.787,47.652
	s198.467-21.151,202.787-47.652L458.967,163.168L458.967,163.168z"/>
<g>
	<path style="fill:#F95346;" d="M136.379,201.28c-1.337-9.506-2.031-19.364-2.031-29.263c0-52.27,48.153-58.57,62.698-52.451
		c6.498,2.733,15.662,5.448,20.95,5.448c2.647,0,6.265-0.682,10.032-1.705c-0.022-0.563-0.044-1.125-0.077-1.676
		c-13.081,1.354-24.432-0.777-24.432-0.777s-4.201-22.376,2.954-40.504c-14.761-9.62-33.035-9.389-41.066-6.01
		c-6.498,2.733-15.662,5.448-20.95,5.448c-5.287,0-14.452-2.715-20.95-5.448c-14.546-6.119-62.698,0.181-62.698,52.451
		c0,18.487,2.352,36.867,6.979,52.976C82.081,188.417,106.035,195.854,136.379,201.28z"/>
	<path style="fill:#F95346;" d="M256,210.82c14.49,0,28.62-0.375,42.25-1.081c2.253-12.036,3.395-24.853,3.395-37.721
		c0-54.382-48.153-58.57-62.698-52.451c-6.497,2.733-15.662,5.448-20.95,5.448c-5.287,0-14.452-2.715-20.95-5.448
		c-14.546-6.119-62.698,0.181-62.698,52.451c0,9.893,0.674,19.757,2.008,29.259C169.903,207.277,211.256,210.82,256,210.82z"/>
	<path style="fill:#F95346;" d="M301.643,172.017c0,12.869-1.142,25.685-3.396,37.722c62.945-3.261,115.106-13.657,141.689-27.572
		c2.717-13.048,4.092-27.128,4.092-41.268c0-54.382-48.153-58.57-62.698-52.451c-6.498,2.734-15.663,5.448-20.95,5.448
		c-5.287,0-14.451-2.715-20.95-5.448c-12.872-5.415-52.061-1.097-60.905,36.197C291.174,132.22,301.643,146.662,301.643,172.017z"/>
</g>
<path style="fill:#87635C;" d="M445.366,249.021l-26.921,169.916l-4.86,30.671C408.805,479.789,382.794,502,352.233,502H159.766
	c-30.561,0-56.572-22.211-61.352-52.392l-4.86-30.671L66.633,249.021C95.984,267.612,169.687,280.792,256,280.792
	S416.015,267.612,445.366,249.021z"/>
<path d="M373.594,248.741c-0.65,0-1.31-0.061-1.96-0.19c-0.63-0.13-1.26-0.319-1.87-0.569c-0.6-0.25-1.18-0.561-1.72-0.921
	c-0.55-0.369-1.06-0.779-1.521-1.25c-0.47-0.46-0.88-0.97-1.25-1.52c-0.359-0.54-0.67-1.12-0.92-1.72
	c-0.25-0.601-0.439-1.23-0.569-1.87c-0.131-0.65-0.19-1.3-0.19-1.96c0-0.65,0.06-1.3,0.19-1.95c0.13-0.64,0.319-1.271,0.569-1.87
	c0.25-0.6,0.561-1.18,0.92-1.73c0.37-0.551,0.78-1.061,1.25-1.52c0.46-0.46,0.971-0.88,1.521-1.24c0.54-0.359,1.12-0.67,1.72-0.92
	c0.61-0.25,1.24-0.439,1.87-0.569c1.29-0.261,2.62-0.261,3.91,0c0.64,0.13,1.27,0.319,1.87,0.569c0.609,0.25,1.189,0.561,1.729,0.92
	c0.55,0.36,1.061,0.78,1.521,1.24c0.46,0.46,0.88,0.97,1.239,1.52c0.36,0.55,0.67,1.13,0.92,1.73c0.25,0.6,0.441,1.23,0.57,1.87
	c0.13,0.65,0.2,1.3,0.2,1.95c0,0.66-0.07,1.31-0.2,1.96c-0.13,0.64-0.32,1.27-0.57,1.87c-0.25,0.6-0.559,1.18-0.92,1.72
	c-0.359,0.55-0.779,1.06-1.239,1.52c-0.46,0.471-0.971,0.881-1.521,1.25c-0.54,0.36-1.12,0.671-1.729,0.921
	c-0.601,0.25-1.23,0.439-1.87,0.569C374.903,248.68,374.244,248.741,373.594,248.741z"/>
<path d="M453.943,136.985c-1.128-28.373-14.433-43.174-25.679-50.645c-5.165-3.431-10.771-5.889-16.408-7.518
	c14.346-21.892,8.574-53.855,8.292-55.351c-0.762-4.049-3.929-7.216-7.978-7.978c-1.66-0.313-40.963-7.42-62.238,13.856
	c-13.38,13.379-15.534,33.882-15.213,47.676c-10.099-1.372-23.589,0.215-35.82,6.427c-8.79,4.463-19.677,12.689-26.279,27.486
	c-1.047-0.363-2.097-0.693-3.148-0.997c14.345-21.893,8.573-53.856,8.291-55.351c-0.762-4.049-3.929-7.216-7.978-7.978
	c-1.66-0.313-40.963-7.42-62.239,13.855c-2.007,2.006-3.759,4.174-5.29,6.454c-2.091-0.855-4.208-1.583-6.329-2.196
	c14.353-21.892,8.58-53.865,8.297-55.361c-0.762-4.049-3.929-7.216-7.978-7.977c-1.661-0.314-40.961-7.42-62.238,13.854
	c-13.367,13.367-15.53,33.843-15.214,47.636c-11.926-1.673-28.193,0.906-41.818,9.957c-11.937,7.929-26.167,23.727-26.167,53.957
	c0,5.331,0.209,10.622,0.579,15.852c-5.545,5.689-8.354,11.897-8.354,18.513v12.354c0,25.959,4.675,50.844,13.216,73.867
	l0.504,3.183c0.001,0.009,0.001,0.017,0.002,0.026l31.781,200.587c2.685,16.947,11.347,32.414,24.392,43.555
	C125.973,505.866,142.607,512,159.766,512h192.468c17.16,0,33.793-6.135,46.838-17.273c13.044-11.14,21.707-26.607,24.392-43.555
	l31.781-200.587c0.001-0.008,0.001-0.017,0.002-0.026l0.504-3.183c8.541-23.023,13.216-47.908,13.216-73.867v-12.354
	C468.967,152.252,463.915,144.139,453.943,136.985z M364.075,43.493c9.042-9.044,26.237-9.975,37.224-9.202
	c0.71,9.905,0.428,27.7-9.149,37.276c-2.713,2.713-6.168,4.685-9.961,6.11c-1.45,0.364-2.81,0.797-4.071,1.29
	c-7.913,2.101-16.651,2.262-23.192,1.802C354.215,70.865,354.496,53.07,364.075,43.493z M307.955,101.285
	c11.593-5.886,23.695-5.262,27.597-3.62c6.831,2.875,17.434,6.232,24.829,6.232c7.195,0,17.417-3.176,24.255-5.995
	c1.039-0.299,2.074-0.626,3.103-0.981c6.418-1.345,19.001-0.865,29.458,6.082c11.168,7.418,16.832,20.169,16.832,37.897
	c0,0.469-0.012,0.938-0.015,1.407c0,0.015-0.003,0.03-0.003,0.045c-0.02,2.79-0.095,5.557-0.222,8.299
	c-0.018,0.384-0.041,0.766-0.062,1.15c-0.049,0.938-0.101,1.876-0.162,2.808c-0.065,0.975-0.14,1.946-0.22,2.916
	c-0.029,0.365-0.055,0.731-0.086,1.095c-0.498,5.73-1.233,11.358-2.197,16.766c-0.008,0.003-0.016,0.007-0.024,0.01
	c-0.69,0.318-1.399,0.633-2.119,0.946c-0.199,0.087-0.4,0.173-0.601,0.259c-0.53,0.227-1.07,0.453-1.616,0.678
	c-0.341,0.14-0.681,0.281-1.032,0.421c-0.321,0.129-0.65,0.257-0.976,0.386c-6.876,2.699-15.497,5.469-26.229,8.145
	c-0.117,0.029-0.233,0.058-0.35,0.087c-0.721,0.179-1.467,0.356-2.207,0.534c-0.898,0.216-1.803,0.43-2.715,0.642
	c-0.588,0.136-1.175,0.273-1.769,0.407c-1.195,0.27-2.403,0.537-3.621,0.799c-0.83,0.178-1.669,0.354-2.509,0.528
	c-0.762,0.159-1.526,0.317-2.297,0.473c-0.854,0.173-1.712,0.344-2.576,0.513c-0.582,0.114-1.171,0.225-1.757,0.337
	c-2.704,0.516-5.456,1.013-8.253,1.492c-0.778,0.133-1.555,0.266-2.341,0.395c-0.593,0.098-1.191,0.194-1.789,0.291
	c-0.85,0.137-1.702,0.274-2.56,0.408c-0.612,0.096-1.228,0.19-1.845,0.284c-0.862,0.132-1.727,0.262-2.598,0.39
	c-0.625,0.092-1.251,0.183-1.88,0.273c-0.871,0.125-1.746,0.249-2.625,0.37c-0.638,0.089-1.277,0.177-1.92,0.264
	c-0.888,0.12-1.782,0.238-2.679,0.355c-0.643,0.084-1.286,0.168-1.934,0.25c-0.914,0.116-1.834,0.229-2.755,0.342
	c-0.636,0.078-1.27,0.156-1.91,0.232c-0.97,0.115-1.947,0.227-2.925,0.339c-0.602,0.069-1.202,0.139-1.807,0.206
	c-1.069,0.119-2.148,0.233-3.227,0.348c-0.524,0.055-1.044,0.113-1.57,0.167c-1.47,0.152-2.949,0.299-4.436,0.443
	c-0.138,0.013-0.275,0.028-0.413,0.041c-1.636,0.157-3.284,0.309-4.94,0.456c-0.464,0.041-0.933,0.079-1.399,0.119
	c-1.187,0.103-2.375,0.205-3.571,0.302c-0.621,0.051-1.248,0.098-1.872,0.147c-1.05,0.083-2.101,0.165-3.158,0.244
	c-0.685,0.051-1.375,0.099-2.063,0.148c-0.722,0.052-1.446,0.102-2.172,0.152c0.029-0.235,0.048-0.473,0.076-0.708
	c0.219-1.834,0.419-3.676,0.591-5.531c0.015-0.157,0.034-0.313,0.048-0.47c0.182-2.003,0.33-4.021,0.457-6.045
	c0.035-0.564,0.063-1.13,0.094-1.696c0.084-1.528,0.154-3.06,0.207-4.598c0.021-0.596,0.043-1.192,0.06-1.789
	c0.055-2.045,0.092-4.096,0.092-6.156c0-0.915-0.014-1.814-0.038-2.703c-0.007-0.252-0.019-0.498-0.028-0.749
	c-0.022-0.644-0.048-1.285-0.083-1.915c-0.014-0.255-0.032-0.506-0.048-0.759c-0.04-0.637-0.085-1.268-0.138-1.89
	c-0.017-0.207-0.036-0.412-0.055-0.617c-0.064-0.698-0.135-1.387-0.214-2.068c-0.013-0.114-0.026-0.228-0.04-0.341
	c-2.433-20.278-11.469-32.735-20.775-40.31C293.662,112.027,299.604,105.525,307.955,101.285z M215.774,84.023
	c0.061-0.155,0.109-0.313,0.162-0.469c1.383-3.35,3.242-6.432,5.752-8.943c9.043-9.043,26.236-9.977,37.225-9.202
	c0.71,9.905,0.429,27.7-9.15,37.277c-2.713,2.713-6.169,4.685-9.963,6.11c-1.446,0.363-2.802,0.794-4.06,1.286
	c-3.646,0.969-7.461,1.533-11.164,1.803c-0.418,0.029-0.832,0.055-1.244,0.077c-0.208,0.012-0.415,0.022-0.621,0.032
	c-3.799,0.174-7.315,0.06-10.172-0.143c-0.003-0.047-0.006-0.099-0.009-0.147c-0.031-0.452-0.06-0.925-0.086-1.408
	c-0.017-0.312-0.032-0.634-0.046-0.958c-0.01-0.224-0.019-0.453-0.027-0.682C212.113,101.608,212.576,92.13,215.774,84.023z
	 M217.995,135.015c0.443,0,0.903-0.013,1.376-0.037c0.14-0.007,0.286-0.021,0.427-0.03c0.336-0.021,0.673-0.044,1.023-0.077
	c0.181-0.017,0.366-0.041,0.549-0.061c0.314-0.034,0.627-0.067,0.951-0.11c0.245-0.032,0.494-0.071,0.742-0.108
	c0.261-0.039,0.519-0.075,0.787-0.119c0.38-0.063,0.764-0.133,1.15-0.205c0.133-0.025,0.262-0.047,0.396-0.073
	c5.833-1.127,12.147-3.236,16.863-5.18c1.033-0.298,2.062-0.622,3.086-0.975c6.125-1.286,17.88-0.904,28.036,5.18
	c0.002,0.001,0.004,0.003,0.006,0.004c0.647,0.387,1.268,0.8,1.881,1.22c0.281,0.193,0.555,0.394,0.829,0.594
	c0.401,0.292,0.797,0.59,1.183,0.897c0.293,0.233,0.578,0.473,0.862,0.715c0.346,0.295,0.687,0.594,1.02,0.902
	c0.294,0.272,0.582,0.55,0.866,0.833c0.301,0.298,0.596,0.602,0.885,0.911c0.289,0.309,0.572,0.624,0.849,0.945
	c0.263,0.304,0.52,0.613,0.772,0.927c0.278,0.345,0.551,0.695,0.816,1.052c0.23,0.31,0.454,0.627,0.675,0.946
	c0.262,0.379,0.52,0.761,0.769,1.152c0.203,0.32,0.398,0.647,0.592,0.975c0.243,0.41,0.482,0.822,0.71,1.245
	c0.179,0.332,0.35,0.673,0.52,1.013c0.219,0.438,0.437,0.877,0.642,1.327c0.159,0.349,0.307,0.708,0.458,1.065
	c0.194,0.461,0.387,0.922,0.567,1.396c0.14,0.371,0.269,0.752,0.4,1.13c0.167,0.481,0.335,0.96,0.488,1.454
	c0.123,0.396,0.232,0.804,0.345,1.209c0.139,0.495,0.281,0.988,0.407,1.496c0.107,0.432,0.198,0.878,0.295,1.318
	c0.11,0.5,0.224,0.996,0.321,1.507c0.091,0.48,0.164,0.976,0.244,1.467c0.08,0.494,0.168,0.981,0.236,1.486
	c0.074,0.546,0.129,1.109,0.19,1.667c0.051,0.47,0.112,0.931,0.154,1.409c0.058,0.663,0.094,1.346,0.133,2.025
	c0.023,0.394,0.057,0.778,0.074,1.178c0.046,1.09,0.07,2.199,0.07,3.331c0,1.404-0.018,2.802-0.046,4.198
	c-0.008,0.425-0.021,0.848-0.032,1.272c-0.026,1-0.059,1.997-0.099,2.992c-0.018,0.451-0.037,0.902-0.058,1.352
	c-0.052,1.094-0.113,2.184-0.182,3.271c-0.019,0.294-0.034,0.59-0.054,0.883c-0.094,1.38-0.201,2.755-0.323,4.123
	c-0.026,0.291-0.057,0.579-0.084,0.87c-0.102,1.088-0.211,2.173-0.33,3.254c-0.044,0.4-0.09,0.8-0.137,1.199
	c-0.121,1.04-0.251,2.075-0.389,3.107c-0.044,0.326-0.085,0.653-0.13,0.979c-0.028,0.2-0.061,0.398-0.09,0.598
	c-0.438,0.018-0.87,0.041-1.308,0.059c-1.015,0.041-2.035,0.074-3.052,0.111c-2.209,0.079-4.422,0.151-6.642,0.213
	c-1.104,0.031-2.209,0.059-3.316,0.085c-2.251,0.053-4.506,0.095-6.763,0.13c-0.99,0.015-1.979,0.034-2.971,0.046
	c-3.211,0.038-6.424,0.061-9.637,0.061c-2.542,0-5.07-0.015-7.59-0.038c-0.008,0-0.016,0-0.024,0
	c-0.216-0.002-0.432-0.003-0.648-0.006c-2.127-0.021-4.25-0.048-6.365-0.085c-0.345-0.006-0.688-0.015-1.032-0.021
	c-1.791-0.034-3.577-0.074-5.358-0.119c-0.707-0.018-1.414-0.036-2.119-0.056c-1.957-0.055-3.91-0.115-5.855-0.183
	c-0.652-0.023-1.3-0.05-1.95-0.075c-1.44-0.054-2.877-0.112-4.31-0.174c-0.809-0.035-1.619-0.07-2.425-0.107
	c-1.846-0.085-3.686-0.176-5.517-0.274c-0.748-0.04-1.491-0.084-2.237-0.126c-1.354-0.077-2.705-0.156-4.051-0.24
	c-0.756-0.047-1.512-0.093-2.265-0.142c-1.868-0.122-3.728-0.249-5.579-0.384c-0.602-0.044-1.2-0.09-1.801-0.135
	c-1.606-0.121-3.207-0.246-4.8-0.377c-0.453-0.037-0.907-0.073-1.359-0.111c-2.048-0.173-4.084-0.353-6.108-0.542
	c-0.268-0.025-0.535-0.051-0.802-0.076c-13.404-1.268-26.265-2.896-38.395-4.872c-0.099-0.962-0.191-1.926-0.277-2.891
	c-0.012-0.138-0.025-0.276-0.037-0.415c-0.088-1.024-0.168-2.051-0.24-3.078c-0.042-0.6-0.077-1.201-0.114-1.802
	c-0.069-1.114-0.128-2.229-0.178-3.346c-0.046-1.036-0.087-2.074-0.117-3.114c-0.015-0.497-0.028-0.995-0.039-1.493
	c-0.033-1.504-0.057-3.011-0.057-4.52c0-16.081,5.096-28.116,15.156-35.815c0.671-0.513,1.363-1.007,2.078-1.482
	c1.106-0.735,2.238-1.402,3.386-2.007c11.1-5.845,23.686-5.826,28.2-3.928C200.001,131.659,210.603,135.015,217.995,135.015z
	 M148.15,29.385c9.041-9.041,26.237-9.974,37.224-9.201c0.71,9.904,0.429,27.699-9.148,37.276c-2.716,2.716-6.175,4.689-9.973,6.115
	c-1.449,0.362-2.805,0.794-4.062,1.286c-7.912,2.1-16.648,2.261-23.19,1.801C138.291,56.757,138.572,38.963,148.15,29.385z
	 M88.042,89.496c11.797-7.836,26.607-8.031,31.588-5.936c6.833,2.875,17.437,6.232,24.826,6.232c7.19,0,17.412-3.176,24.254-5.996
	c1.02-0.294,2.036-0.614,3.047-0.961c5.048-1.07,14.003-1.015,22.728,2.507c-1.078,4.578-1.663,9.149-1.95,13.458
	c-0.006,0.089-0.012,0.179-0.018,0.268c-0.043,0.674-0.08,1.34-0.109,2c-0.01,0.223-0.017,0.443-0.026,0.664
	c-0.021,0.562-0.041,1.121-0.052,1.67c-0.009,0.392-0.01,0.772-0.014,1.156c-0.004,0.387-0.012,0.78-0.011,1.16
	c0.001,0.799,0.011,1.577,0.028,2.337c0,0.015,0,0.031,0.001,0.045c-0.033-0.005-0.069-0.007-0.102-0.012
	c-0.643-0.089-1.3-0.163-1.968-0.227c-0.17-0.016-0.341-0.03-0.512-0.045c-0.625-0.053-1.258-0.097-1.902-0.128
	c-0.076-0.004-0.149-0.01-0.225-0.013c-0.687-0.03-1.388-0.042-2.093-0.046c-0.203-0.001-0.406-0.002-0.61,0
	c-0.701,0.004-1.408,0.017-2.125,0.046c-0.146,0.006-0.295,0.017-0.442,0.024c-0.62,0.03-1.245,0.071-1.874,0.122
	c-0.208,0.017-0.415,0.032-0.624,0.051c-0.725,0.065-1.455,0.144-2.191,0.236c-0.201,0.025-0.404,0.054-0.606,0.082
	c-0.634,0.086-1.271,0.181-1.911,0.287c-0.175,0.029-0.349,0.055-0.525,0.086c-0.753,0.131-1.509,0.28-2.268,0.44
	c-0.219,0.046-0.437,0.095-0.656,0.143c-0.729,0.162-1.459,0.333-2.19,0.522c-0.088,0.023-0.176,0.044-0.265,0.067
	c-0.769,0.202-1.54,0.425-2.31,0.658c-0.211,0.064-0.422,0.128-0.633,0.194c-0.782,0.245-1.563,0.503-2.344,0.78
	c-0.132,0.047-0.263,0.098-0.395,0.146c-0.699,0.254-1.397,0.523-2.093,0.804c-0.182,0.073-0.363,0.145-0.545,0.22
	c-0.778,0.322-1.553,0.662-2.325,1.018c-0.169,0.078-0.337,0.16-0.505,0.24c-0.701,0.332-1.398,0.677-2.091,1.038
	c-0.121,0.063-0.244,0.123-0.365,0.187c-0.77,0.408-1.534,0.837-2.293,1.282c-0.176,0.103-0.351,0.208-0.527,0.313
	c-0.774,0.464-1.544,0.941-2.303,1.445c-11.938,7.929-26.169,23.727-26.169,53.958c0,1.377,0.014,2.752,0.039,4.126
	c0.004,0.211,0.012,0.422,0.016,0.633c0.025,1.206,0.058,2.409,0.103,3.611c0.003,0.093,0.008,0.186,0.012,0.279
	c0.104,2.745,0.26,5.478,0.464,8.196c-16.765-3.576-31.011-7.833-41.732-12.456c-0.037-0.016-0.075-0.032-0.112-0.048
	c-0.743-0.321-1.467-0.645-2.176-0.97c-0.093-0.043-0.188-0.085-0.28-0.128c-0.677-0.313-1.335-0.627-1.979-0.942
	c-0.087-0.042-0.177-0.085-0.263-0.127c-0.719-0.355-1.419-0.712-2.097-1.07c-0.4-1.552-0.77-3.134-1.127-4.729
	c-0.082-0.368-0.166-0.735-0.246-1.105c-0.321-1.478-0.622-2.974-0.906-4.484c-0.097-0.519-0.189-1.043-0.282-1.566
	c-0.202-1.13-0.392-2.27-0.573-3.415c-0.144-0.911-0.281-1.827-0.413-2.749c-0.136-0.949-0.265-1.902-0.387-2.861
	c-0.109-0.857-0.215-1.716-0.313-2.581c-0.109-0.962-0.207-1.93-0.302-2.899c-0.031-0.311-0.066-0.618-0.095-0.929
	c-0.001-0.008-0.003-0.015-0.004-0.023c-0.579-6.21-0.885-12.563-0.885-18.986C70.808,109.639,76.606,97.091,88.042,89.496z
	 M403.708,448.044C399.674,473.514,378.025,492,352.233,492H159.765c-25.792,0-47.44-18.486-51.475-43.956L84.854,300.108
	C123.69,352.474,185.945,386.479,256,386.479s132.311-34.005,171.146-86.371L403.708,448.044z M88.849,269.845
	c38.904,13.034,100.026,20.947,167.151,20.947s128.247-7.912,167.151-20.947c-33.393,57.716-95.811,96.632-167.151,96.632
	S122.242,327.561,88.849,269.845z M436.321,242.2c-0.087,0.226-0.171,0.454-0.259,0.68c-30.99,16.793-102.055,27.911-180.061,27.911
	S106.929,259.673,75.938,242.88c-0.088-0.226-0.172-0.454-0.259-0.68l-1.814-11.447c36.894,16.43,105.626,26.706,182.134,26.706
	c26.965,0,53.193-1.26,77.958-3.744c5.495-0.552,9.503-5.453,8.952-10.948c-0.552-5.494-5.437-9.495-10.948-8.952
	c-24.104,2.418-49.661,3.645-75.962,3.645c-81.527,0-155.478-12.144-184.016-30.22c-0.641-0.406-1.312-0.722-1.997-0.967
	l-2.403-15.168c2.163,1.128,4.454,2.234,6.903,3.313c6.596,2.912,14.228,5.633,22.879,8.162c0.114,0.033,0.229,0.066,0.343,0.1
	c1.45,0.422,2.925,0.838,4.432,1.249c0.263,0.072,0.53,0.143,0.794,0.214c1.399,0.377,2.819,0.751,4.267,1.119
	c0.366,0.093,0.74,0.185,1.109,0.278c1.387,0.348,2.789,0.692,4.221,1.031c0.002,0.001,0.004,0.001,0.006,0.001
	c0.133,0.032,0.258,0.064,0.392,0.096c12.821,3.022,26.973,5.591,42.102,7.68c0.105,0.014,0.209,0.029,0.315,0.044
	c2.216,0.305,4.452,0.6,6.709,0.884c0.286,0.036,0.574,0.071,0.861,0.106c2.006,0.249,4.026,0.492,6.063,0.725
	c0.29,0.033,0.578,0.068,0.869,0.101c1.973,0.223,3.964,0.435,5.963,0.643c0.756,0.078,1.513,0.156,2.272,0.232
	c1.843,0.185,3.693,0.364,5.557,0.535c0.908,0.084,1.823,0.163,2.736,0.243c1.214,0.107,2.433,0.211,3.655,0.312
	c1.381,0.114,2.767,0.225,4.158,0.332c1.318,0.101,2.638,0.201,3.964,0.296c1.106,0.079,2.215,0.156,3.327,0.231
	c1.337,0.09,2.68,0.175,4.025,0.258c1.448,0.089,2.9,0.175,4.356,0.256c1.184,0.066,2.37,0.13,3.56,0.192
	c1.014,0.052,2.025,0.106,3.043,0.154c1.891,0.09,3.791,0.172,5.696,0.249c0.93,0.038,1.861,0.073,2.794,0.108
	c1.92,0.071,3.844,0.137,5.775,0.195c0.699,0.021,1.4,0.039,2.1,0.058c1.858,0.051,3.721,0.096,5.588,0.135
	c0.62,0.013,1.239,0.027,1.86,0.038c2.274,0.042,4.555,0.074,6.842,0.098c0.524,0.006,1.049,0.01,1.574,0.014
	c2.27,0.02,4.544,0.032,6.824,0.033c0.16,0,0.318,0.003,0.478,0.003c0.1,0,0.2-0.002,0.3-0.002c3.336-0.001,6.661-0.022,9.974-0.062
	c0.363-0.004,0.723-0.011,1.085-0.016c3.059-0.041,6.108-0.097,9.143-0.17c0.572-0.014,1.141-0.031,1.712-0.046
	c2.805-0.074,5.6-0.16,8.381-0.262c0.745-0.027,1.486-0.057,2.229-0.086c2.589-0.102,5.166-0.214,7.73-0.34
	c0.883-0.043,1.762-0.088,2.642-0.134c2.406-0.126,4.8-0.262,7.182-0.409c0.988-0.061,1.973-0.122,2.956-0.187
	c2.254-0.148,4.494-0.306,6.724-0.472c0.057-0.004,0.115-0.008,0.172-0.012c1-0.075,2-0.149,2.995-0.228
	c0.615-0.049,1.225-0.101,1.839-0.151c0.713-0.058,1.425-0.116,2.135-0.176c0.78-0.066,1.557-0.134,2.334-0.203
	c0.082-0.007,0.165-0.014,0.247-0.021c1.092-0.096,2.185-0.192,3.27-0.293c2.475-0.229,4.924-0.471,7.354-0.722
	c0.333-0.035,0.675-0.064,1.008-0.099c0.26-0.027,0.514-0.058,0.774-0.085c1.501-0.159,2.99-0.325,4.473-0.493
	c0.551-0.062,1.107-0.122,1.655-0.185c1.995-0.231,3.973-0.47,5.933-0.716c0.535-0.067,1.061-0.138,1.594-0.207
	c1.436-0.184,2.867-0.371,4.284-0.564c0.737-0.1,1.465-0.203,2.197-0.306c1.216-0.17,2.426-0.343,3.628-0.519
	c0.753-0.11,1.502-0.222,2.249-0.334c1.201-0.182,2.392-0.367,3.577-0.554c0.696-0.11,1.394-0.219,2.085-0.331
	c1.389-0.225,2.762-0.457,4.128-0.69c0.456-0.078,0.919-0.153,1.372-0.232c1.781-0.31,3.539-0.627,5.279-0.951
	c0.558-0.104,1.105-0.212,1.658-0.317c1.206-0.229,2.406-0.46,3.591-0.696c0.668-0.133,1.328-0.269,1.99-0.404
	c1.066-0.218,2.125-0.438,3.174-0.661c0.665-0.142,1.328-0.284,1.986-0.427c1.071-0.234,2.13-0.471,3.182-0.71
	c0.59-0.134,1.185-0.267,1.769-0.403c1.334-0.311,2.649-0.626,3.952-0.946c0.276-0.068,0.56-0.133,0.835-0.202
	c1.552-0.385,3.077-0.778,4.582-1.176c0.496-0.131,0.979-0.266,1.47-0.398c1.024-0.277,2.042-0.555,3.043-0.838
	c0.559-0.158,1.11-0.317,1.662-0.477c0.928-0.269,1.847-0.54,2.755-0.813c0.541-0.163,1.081-0.326,1.615-0.491
	c0.946-0.293,1.876-0.589,2.799-0.887c0.452-0.146,0.91-0.29,1.356-0.438c0.743-0.245,1.468-0.495,2.195-0.744
	c0.203-0.069,0.406-0.138,0.606-0.208c0.387-0.134,0.787-0.266,1.169-0.401c0.002-0.001,0.003-0.001,0.005-0.002
	c0.355-0.125,0.691-0.253,1.042-0.379c0.289-0.104,0.575-0.209,0.862-0.313c2.542-0.926,4.968-1.874,7.276-2.844
	c0.267-0.112,0.543-0.223,0.807-0.336c0.61-0.261,1.199-0.525,1.792-0.789c0.466-0.207,0.938-0.413,1.395-0.622
	c0.098-0.045,0.203-0.089,0.3-0.134c0.542-0.25,1.064-0.504,1.591-0.757c0.278-0.133,0.564-0.264,0.838-0.398
	c0.843-0.412,1.666-0.827,2.47-1.247L436.321,242.2z"/>
<g>
</g>
<g>
</g>
<g>
</g>
<g>
</g>
<g>
</g>
<g>
</g>
<g>
</g>
<g>
</g>
<g>
</g>
<g>
</g>
<g>
</g>
<g>
</g>
<g>
</g>
<g>
</g>
<g>
</g>
</svg>
