<svg id="Layer_5" enable-background="new 0 0 64 64" height="512" viewBox="0 0 64 64" width="512" xmlns="http://www.w3.org/2000/svg"><g><g><g><path d="m14 43c-4.42 0-8-4.03-8-9 0-.01 0-.02 0-.03 0-1.59-.64-3.08-1.81-4.16-1.36-1.25-2.19-2.95-2.19-4.81 0-2.92 2.04-5.42 4.95-6.47 1.21-.44 2.2-1.36 2.83-2.48 1.17-2.07 3.53-3.37 6.15-2.98 1.6.24 3.01 1.14 3.93 2.41-1.69.8-2.86 2.53-2.86 4.52 0 .94.28 1.82.73 2.57-1.61.83-2.73 2.49-2.73 4.43 0 1.76.91 3.3 2.28 4.19-.18.57-.28 1.18-.28 1.81 0 3.31 2.69 6 6 6 3.88 0 3.02 10.7 3 16.75v.25c0 3.31 2.69 6 6 6-5 0-12-1-12-7 0-7-3-12-6-12z" fill="#a0d468"/></g><g><path d="m50 43c-3 0-6 5-6 12 0 6-7 7-12 7 1.66 0 3.16-.67 4.24-1.76 1.09-1.08 1.76-2.58 1.76-4.24 0-.06 0-.13 0-.19-.01-6.04-.36-16.81 3-16.81 3.31 0 6-2.69 6-6 0-.63-.1-1.24-.28-1.81 1.37-.89 2.28-2.43 2.28-4.19 0-1.94-1.12-3.6-2.73-4.43.45-.75.73-1.63.73-2.57 0-1.99-1.17-3.72-2.86-4.52.92-1.27 2.33-2.17 3.93-2.41 2.62-.39 4.98.91 6.15 2.98.63 1.12 1.62 2.04 2.83 2.48 2.91 1.05 4.95 3.55 4.95 6.47 0 1.86-.83 3.56-2.19 4.81-1.17 1.08-1.81 2.57-1.81 4.16v.03c0 4.97-3.58 9-8 9z" fill="#a0d468"/></g><g><path d="m30 37v-1c0-.3-.07-.58-.19-.86.12.6.19 1.22.19 1.86zm11.35-21.96c.22-.03.43-.04.65-.04.77 0 1.49.17 2.14.48 1.69.8 2.86 2.53 2.86 4.52 0 .94-.28 1.82-.73 2.57 1.61.83 2.73 2.49 2.73 4.43 0 1.76-.91 3.3-2.28 4.19.18.57.28 1.18.28 1.81 0 3.31-2.69 6-6 6-3.36 0-3.01 10.77-3 16.81v.19c0 1.66-.67 3.16-1.76 4.24-1.08 1.09-2.58 1.76-4.24 1.76-3.31 0-6-2.69-6-6 0-.08 0-.17 0-.25.02-6.05.88-16.75-3-16.75-3.31 0-6-2.69-6-6 0-.63.1-1.24.28-1.81-1.37-.89-2.28-2.43-2.28-4.19 0-1.94 1.12-3.6 2.73-4.43-.45-.75-.73-1.63-.73-2.57 0-1.99 1.17-3.72 2.86-4.52.65-.31 1.37-.48 2.14-.48.22 0 .43.01.65.04-.38-1.07-.65-2.14-.65-3.04 0-4.77 5.69-8.27 8.02-9.51.61-.33 1.29-.49 1.98-.49s1.37.16 1.98.49c2.33 1.24 8.02 4.74 8.02 9.51 0 .9-.27 1.97-.65 3.04z" fill="#b4dd7f"/></g></g><path d="m57.391 17.59c-.934-.337-1.751-1.06-2.303-2.036-1.44-2.545-4.256-3.911-7.163-3.474-1.561.233-3.015 1.026-4.094 2.207-.363-.117-.741-.198-1.13-.243.183-.717.299-1.415.299-2.044 0-5.29-5.979-9.032-8.551-10.396-1.488-.791-3.41-.791-4.898 0-2.572 1.364-8.551 5.106-8.551 10.396 0 .629.116 1.327.3 2.044-.389.045-.767.127-1.13.243-1.079-1.18-2.532-1.973-4.094-2.207-2.916-.439-5.724.928-7.164 3.474-.552.976-1.369 1.698-2.303 2.035-3.407 1.232-5.609 4.14-5.609 7.411 0 2.079.894 4.048 2.517 5.544.961.886 1.487 2.102 1.483 3.456 0 5.514 4.037 10 9 10 2.088 0 5 4.185 5 11 0 3.649 2.256 8 13 8s13-4.351 13-8c0-6.815 2.912-11 5-11 4.963 0 9-4.486 9-10.032-.004-1.323.522-2.539 1.483-3.424 1.623-1.496 2.517-3.465 2.517-5.544 0-3.271-2.202-6.179-5.609-7.41zm-36.391 37.41c0-6.556-2.629-11.979-6.031-12.86-.155-4.335-1.429-7.058-2.677-9.677-1.179-2.472-2.292-4.807-2.292-8.463h-2c0 4.108 1.265 6.76 2.487 9.324 1.179 2.473 2.287 4.838 2.474 8.578-3.367-.577-5.961-3.898-5.961-7.928.006-1.89-.75-3.63-2.128-4.901-1.207-1.113-1.872-2.559-1.872-4.073 0-2.417 1.684-4.588 4.289-5.529 1.382-.499 2.577-1.54 3.363-2.931 1.03-1.82 3.05-2.791 5.127-2.481.939.141 1.821.574 2.539 1.214-1.408 1.098-2.318 2.806-2.318 4.727 0 .748.147 1.495.433 2.2-1.521 1.121-2.433 2.886-2.433 4.8 0 1.786.79 3.454 2.144 4.588-.096.463-.144.936-.144 1.412 0 3.86 3.141 7 7 7 .257 0 .46.091.659.294 1.615 1.65 1.477 8.28 1.385 12.667-.021 1.012-.039 1.964-.042 2.828 0 .009-.002.018-.002.027v.184c0 1.702.612 3.262 1.625 4.477-3.123-.709-5.625-2.272-5.625-5.477zm6 1c0-.066.002-.143.002-.21.005-.981.293-1.93.838-2.747 2.067-3.101 3.16-6.71 3.16-10.438v-22.605h-2v10.596c-2.429-3.872-6.235-6.297-6.47-6.444l-1.061 1.696c.052.032 3.619 2.299 5.825 5.796-1.676-.891-3.414-1.432-4.02-1.605l-.549 1.923c2.21.632 5.345 2.072 6.104 3.447.1.519.171 1.046.171 1.591v5.605c0 2.723-.663 5.371-1.911 7.763.054-4.789-.141-9.573-2.002-11.473-.572-.585-1.294-.895-2.087-.895-2.757 0-5-2.243-5-5 0-.514.078-1.022.233-1.51l.23-.726-.638-.416c-1.142-.743-1.825-1.995-1.825-3.348 0-1.492.838-2.849 2.187-3.542l.952-.489-.553-.917c-.389-.646-.586-1.336-.586-2.052 0-2.185 1.762-3.961 3.94-3.994.896 2.315 2.122 4.374 2.203 4.509l1.715-1.029c-.796-1.326-2.858-5.257-2.858-7.486 0-4.322 5.731-7.697 7.488-8.629.914-.485 2.109-.485 3.023 0 1.758.932 7.489 4.307 7.489 8.629 0 2.229-2.063 6.16-2.857 7.486l1.715 1.029c.081-.135 1.306-2.194 2.203-4.509 2.177.033 3.939 1.809 3.939 3.994 0 .716-.197 1.406-.587 2.052l-.553.917.952.489c1.35.693 2.188 2.05 2.188 3.542 0 1.353-.683 2.605-1.826 3.349l-.638.416.23.726c.156.487.234.995.234 1.509 0 2.757-2.243 5-5 5-.681 0-1.312.273-1.824.789-1.718 1.727-2.113 6.198-2.177 11.749-1.306-2.435-1.999-5.145-1.999-7.933v-1.605c0-5.229 7.278-8.036 7.353-8.064l-.704-1.873c-.24.091-4.17 1.604-6.648 4.653v-3.716c0-2.538.868-4.329 1.901-5.574 1 1.022 3.025 2.574 6.098 2.574v-2c-2.362 0-3.908-1.193-4.652-1.951 1.012-.755 1.885-1.072 1.971-1.102l-.319-.947-.316-.949c-.042.014-2.73.954-4.684 3.593v-8.307c0-.775.186-1.554.535-2.252.782-1.559 1.553-2.759 2.172-3.378l-1.414-1.414c-.982.983-1.927 2.661-2.545 3.896-.489.975-.748 2.064-.748 3.148v25.268c0 3.727 1.093 7.336 3.16 10.438.548.821.837 1.777.839 2.764l.001.193c0 2.757-2.243 5-5 5s-5-2.243-5-5zm32.128-26.927c-1.378 1.271-2.134 3.011-2.128 4.927 0 4.007-2.594 7.326-5.962 7.902.187-3.74 1.295-6.105 2.474-8.578 1.223-2.564 2.488-5.216 2.488-9.324h-2c0 3.656-1.113 5.991-2.292 8.463-1.248 2.619-2.522 5.342-2.677 9.677-3.402.881-6.031 6.304-6.031 12.86 0 3.205-2.502 4.768-5.625 5.477 1.013-1.215 1.625-2.775 1.625-4.477v-.183c0-.003-.001-.007-.001-.01l-.006-1.56c-.026-4.626-.07-12.368 1.601-14.048.175-.176.303-.199.406-.199 3.859 0 7-3.14 7-7 0-.476-.048-.949-.144-1.412 1.354-1.134 2.144-2.802 2.144-4.588 0-1.914-.912-3.679-2.433-4.8.286-.705.433-1.452.433-2.2 0-1.921-.91-3.629-2.319-4.728.718-.64 1.601-1.073 2.539-1.214 2.084-.312 4.097.662 5.127 2.481.786 1.392 1.981 2.433 3.363 2.932 2.606.941 4.29 3.112 4.29 5.529 0 1.514-.665 2.96-1.872 4.073z"/></g></svg>