<svg id="Capa_1" enable-background="new 0 0 512 512" height="512" viewBox="0 0 512 512" width="512" xmlns="http://www.w3.org/2000/svg"><path d="m479.5 504.5h-442c-16.569 0-30-13.431-30-30v-39.5h497v44.5c0 13.807-11.193 25-25 25z" fill="#f2ac57"/><path d="m474.5 435v44.5c0 13.807-11.193 25-25 25h30c13.807 0 25-11.193 25-25v-44.5z" fill="#e39e4b"/><path d="m150.791 75.275c18.67 18.67 4.029 48.776 1.722 53.198-.19.364-.479.653-.843.843-4.423 2.308-34.535 16.955-53.205-1.715-27.157-27.158-21.795-63.838-20.391-71.153.153-.8.772-1.418 1.571-1.571 7.315-1.403 43.989-6.759 71.146 20.398z" fill="#ffca28"/><path d="m150.791 75.275c-26.436-26.436-61.88-22.063-70.491-20.518 12.916 2.194 27.75 7.778 40.491 20.518 18.67 18.67 4.029 48.776 1.722 53.198-.19.364-.479.653-.843.843-1.58.824-6.449 3.221-12.894 5.114 17.839 7.209 39.222-3.198 42.894-5.114.364-.19.653-.479.843-.843 2.307-4.422 16.948-34.528-1.722-53.198z" fill="#ffb300"/><path d="m400.375 33.107-289.914 289.913c-5.858 5.858-15.355 5.858-21.213 0-5.858-5.858-5.858-15.355 0-21.213l289.913-289.914c5.858-5.858 15.355-5.858 21.213 0 5.858 5.858 5.858 15.356.001 21.214z" fill="#a35418"/><path d="m414.055 435h-45.073s-4.722-101.692 56.566-145.958c.748-.54 1.771.111 1.574 1.012-2.735 12.507-14.353 70.364-13.067 144.946z" fill="#ffb300"/><path d="m319.509 435h45.073s4.719-154.882-56.494-222.397c-.666-.735-1.882-.175-1.74.806 2.548 17.607 14.463 106.545 13.161 221.591z" fill="#ffa000"/><path d="m286.503 435h45.073s4.722-101.692-56.566-145.958c-.748-.54-1.771.111-1.574 1.012 2.735 12.507 14.353 70.364 13.067 144.946z" fill="#ffb300"/><path d="m382.993 435h-45.073s-4.719-149.056 56.502-214.022c.675-.716 1.872-.149 1.726.825-2.561 17.039-14.456 102.577-13.155 213.197z" fill="#ffca28"/><path d="m94.214 273.877c16.706 17.259 108.979 106.073 218.265 83.283 2.092-.436 2.128-3.419.048-3.909-26.73-6.3-108.568-32.109-174.867-121.901-1.448-1.962-4.31-2.163-6.034-.439l-37.361 37.361c-1.544 1.544-1.57 4.036-.051 5.605z" fill="#4380a0"/><path d="m504.5 427.498h-83.031c-.061-10.312.117-20.769.533-31.181.165-4.14-3.056-7.629-7.195-7.794-4.117-.136-7.628 3.056-7.793 7.194-.424 10.612-.606 21.268-.545 31.78h-30.034c.317-20.883 4.375-82.607 39.748-120.252-2.32 13.491-5.15 32.872-7.146 56.227-.353 4.127 2.707 7.759 6.834 8.111 4.132.349 7.758-2.707 8.111-6.834 3.283-38.413 8.842-65.663 10.468-73.102 1.66-7.608-6.961-13.264-13.293-8.692-10.13 7.317-19.121 16.569-26.861 27.559 3.32-45.886 7.766-77.608 9.278-87.65 1.183-8.185-8.896-13.082-14.611-7.035-15.075 15.996-27.367 37.664-36.785 64.769-9.664-30.938-22.583-55.443-38.56-73.075-5.646-6.153-15.874-1.325-14.69 6.951 1.648 11.412 6.515 47.76 9.856 99.747-8.289-12.631-18.137-23.144-29.391-31.274-6.354-4.576-14.957 1.134-13.281 8.69 1.254 5.768 4.134 19.966 6.861 40.254-9.013-3.933-18.885-8.795-29.3-14.788-23.96-13.787-46.038-30.752-66.008-50.689l228.008-228.011c8.787-8.788 8.791-23.036 0-31.827-8.765-8.767-23.037-8.769-31.817 0l-61.356 61.36c-2.929 2.929-2.929 7.678 0 10.607 2.929 2.928 7.678 2.929 10.606-.001l61.353-61.356c2.928-2.925 7.687-2.926 10.607-.004 2.926 2.926 2.926 7.686 0 10.612l-227.779 227.786c-3.368-3.677-6.671-7.444-9.906-11.301l143.107-143.116c2.929-2.929 2.929-7.678 0-10.607-2.929-2.928-7.678-2.929-10.606.001l-141.949 141.958c-1.427-1.857-2.841-3.732-4.239-5.626-4.196-5.685-12.44-6.221-17.372-1.289l-37.361 37.362c-4.411 4.411-4.473 11.645-.138 16.125 0 0 0 0 .001.001 1.536 1.586 3.643 3.711 6.283 6.252l-11.161 11.161c-8.772 8.773-8.772 23.045 0 31.819 8.771 8.771 23.043 8.771 31.816 0l13.934-13.934c34.537 25.392 86.73 53.989 146.615 53.989.187 0 .375 0 .562-.001 1.591 19.848 2.332 39.674 2.213 59.124h-215.217c-4.142 0-7.5 3.357-7.5 7.5s3.358 7.5 7.5 7.5h433.131v37.001c0 9.65-7.851 17.5-17.5 17.5h-442c-12.407 0-22.5-10.094-22.5-22.5v-32.001h17.102c4.142 0 7.5-3.357 7.5-7.5s-3.358-7.5-7.5-7.5h-24.602c-4.142 0-7.5 3.357-7.5 7.5v39.501c0 20.678 16.822 37.501 37.5 37.501h442c17.92 0 32.5-14.579 32.5-32.501v-44.501c0-4.142-3.358-7.5-7.5-7.5zm-187.53-190.329c11.281 18.506 20.369 42.206 27.13 70.799-3.334 13.411-6.107 27.857-8.313 43.32-1.139 7.989-2.045 15.713-2.765 23.027-2.009-9.059-4.478-17.655-7.385-25.755-2.048-48.031-5.814-86.894-8.667-111.391zm-32.59 70.081c10.211 10.87 17.813 23.747 23.468 37.068-5.204-1.418-11.604-3.378-18.937-6.047-1.488-12.222-3.098-22.696-4.531-31.021zm-179.223 10.462c-2.924 2.924-7.681 2.923-10.603.001-2.924-2.924-2.924-7.682 0-10.605l11.618-11.618c3.451 3.024 7.303 6.278 11.532 9.675zm-3.133-46.599 32.043-32.045c28.601 37.876 62.942 68.492 102.124 91.038 18.748 10.788 35.885 18.111 49.703 23.015-.714.041-1.429.076-2.144.108-.223 0-.447.008-.673.028-.003 0-.005 0-.008.001-35.886 1.443-73.039-8.356-110.805-29.286-34.867-19.322-60.402-43.038-70.24-52.859zm192.064 156.385c.117-19.67-.627-39.713-2.219-59.774 7.289-.612 14.676-1.669 22.138-3.226.306-.063.605-.142.898-.232 7.652 26.324 9.042 51.369 9.222 63.232zm91.415-182.681c-2.643 21.86-6.07 55.645-8.185 97.42-4.284 10.7-7.761 22.344-10.377 34.843-4.507 21.527-5.424 40.32-5.536 50.418h-16.057c.048-27.151 2.949-124.014 40.155-182.681z"/><path d="m150.666 138.074 12.515 12.515c2.93 2.929 7.678 2.928 10.606 0 2.929-2.93 2.929-7.678 0-10.608l-12.512-12.512c8.595-19.81 9.957-42.37-5.18-57.508-29.865-29.866-70.1-23.951-77.861-22.46-3.834.735-6.788 3.688-7.525 7.524-1.49 7.765-7.41 48.007 22.454 77.872 15.188 15.187 37.798 13.725 57.503 5.177zm-65.822-76.437c11.181-1.428 39.301-2.413 60.644 18.931 10.155 10.155 7.476 25.492 4.187 35.3l-40.126-40.127c-2.929-2.928-7.678-2.928-10.606 0-2.929 2.93-2.929 7.678 0 10.608l40.123 40.124c-9.81 3.29-25.146 5.967-35.298-4.186-21.341-21.34-20.354-49.469-18.924-60.65z"/></svg>