<svg id="Capa_1" enable-background="new 0 0 503.326 503.326" height="512" viewBox="0 0 503.326 503.326" width="512" xmlns="http://www.w3.org/2000/svg"><path d="m290.236 459.359c13.664 9.379 31.213 11.006 46.369 4.301l48.491-21.454c25.869-11.446 48.051-29.851 64.073-53.165-28.028-3.824-56.568.212-82.437 11.658l-48.491 21.454c-1.38.61-2.722 1.282-4.023 2.011z" fill="#97da7b"/><g><path d="m279.729 503.326c-4.142 0-7.5-3.358-7.5-7.5v-4.729c0-22.115 9.25-43.477 25.377-58.609 22.34-20.961 27.177-54.089 11.762-80.563l-12.127-20.828-29.612-49.497c-2.126-3.554-.969-8.16 2.586-10.286 3.556-2.127 8.161-.968 10.286 2.586l29.656 49.574 12.172 20.904c9.111 15.648 12.689 34.133 10.073 52.051-2.616 17.917-11.329 34.608-24.534 46.998-13.117 12.308-20.641 29.683-20.641 47.67v4.729c.002 4.142-3.356 7.5-7.498 7.5z" fill="#ade194"/></g><path d="m204.607 88.728v-.732c0-32.471 14.383-63.274 39.28-84.12l2.603-2.18c2.701-2.262 6.635-2.262 9.336 0l2.603 2.18c24.896 20.846 39.279 84.433 39.279 84.433v107.602l-90.136 4.486z" fill="#fee97d"/><g><path d="m236.761 146.243c-4.142 0-7.5-3.358-7.5-7.5v-66.674c0-4.142 3.358-7.5 7.5-7.5s7.5 3.358 7.5 7.5v66.673c0 4.143-3.358 7.501-7.5 7.501z" fill="#fee45a"/></g><g><path d="m266.565 146.243c-4.142 0-7.5-3.358-7.5-7.5v-66.674c0-4.142 3.358-7.5 7.5-7.5s7.5 3.358 7.5 7.5v66.673c0 4.143-3.357 7.501-7.5 7.501z" fill="#fee45a"/></g><path d="m298.719 313.077v.732c0 32.471-14.383 63.274-39.28 84.12l-2.603 2.18c-2.701 2.262-6.635 2.262-9.336 0l-2.603-2.18c-24.896-20.846-39.279-51.649-39.279-84.12v-.313l6.948-74.14 85.144 3.556z" fill="#fee97d"/><path d="m364.256 246.948h.314c32.471 0 63.274-14.383 84.12-39.279l2.18-2.604c2.262-2.701 2.262-6.635 0-9.336l-2.18-2.603c-20.846-24.896-51.649-39.28-84.12-39.28h-.732l-88.469-2.986v107.247z" fill="#fee97d"/><g><path d="m380.497 193.501h-64.215c-4.142 0-7.5-3.358-7.5-7.5s3.358-7.5 7.5-7.5h64.215c4.142 0 7.5 3.358 7.5 7.5s-3.358 7.5-7.5 7.5z" fill="#fee45a"/></g><g><path d="m380.497 223.305h-66.294c-4.142 0-7.5-3.358-7.5-7.5s3.358-7.5 7.5-7.5h66.294c4.142 0 7.5 3.358 7.5 7.5s-3.358 7.5-7.5 7.5z" fill="#fee45a"/></g><g><path d="m266.565 337.236c-4.142 0-7.5-3.358-7.5-7.5v-68.535c0-4.142 3.358-7.5 7.5-7.5s7.5 3.358 7.5 7.5v68.535c0 4.142-3.357 7.5-7.5 7.5z" fill="#fee45a"/></g><g><path d="m236.761 337.236c-4.142 0-7.5-3.358-7.5-7.5v-65.841c0-4.142 3.358-7.5 7.5-7.5s7.5 3.358 7.5 7.5v65.841c0 4.142-3.358 7.5-7.5 7.5z" fill="#fee45a"/></g><path d="m335.474 218.165 29.3 29.3c22.961 22.961 34.571 54.913 31.707 87.257l-.299 3.382c-.311 3.509-3.092 6.291-6.602 6.602l-3.382.299c-32.345 2.864-64.297-8.747-87.257-31.707l-29.863-29.863-37.582-40.819 74.13-60.261z" fill="#fef0ae"/><g><path d="m333.239 184.445 30.82-30.82c22.961-22.96 34.571-54.912 31.707-87.257l-.299-3.382c-.311-3.509-3.092-6.291-6.602-6.602l-3.382-.299c-32.345-2.864-64.296 8.746-87.257 31.707l-30.091 30.091-40.137 38.102 56.781 51.843z" fill="#fef0ae"/></g><path d="m139.488 247.959h-.732c-32.471 0-63.275-14.384-84.12-39.28l-2.179-2.603c-2.262-2.701-2.262-6.635 0-9.336l2.18-2.604c20.846-24.896 51.649-39.279 84.119-39.279h.313l82.801-1.01 6.127 99.115z" fill="#fee97d"/><g><path d="m191.386 193.501h-68.556c-4.142 0-7.5-3.358-7.5-7.5s3.358-7.5 7.5-7.5h68.556c4.142 0 7.5 3.358 7.5 7.5s-3.358 7.5-7.5 7.5z" fill="#fee45a"/></g><path d="m234.78 118.901-30.395-30.394c-22.961-22.961-54.912-34.571-87.257-31.707l-3.382.299c-3.509.311-6.291 3.092-6.602 6.602l-.299 3.382c-2.864 32.345 8.746 64.296 31.707 87.257l29.233 29.233 37.832 42.183 63.46-76.911z" fill="#fef0ae"/><path d="m233.247 285.866-28.148 28.148c-22.96 22.96-54.912 34.57-87.256 31.706l-3.382-.3c-3.509-.311-6.291-3.092-6.601-6.602-3.054-34.488 9.326-68.557 33.808-93.039l27.067-27.067 42.459-42.459 64.175 64.175z" fill="#fef0ae"/><g><path d="m285.622 151.933c-2.024 0-4.042-.814-5.52-2.42-2.805-3.047-2.609-7.792.438-10.598l17.988-16.559 28.394-28.393c2.929-2.929 7.678-2.929 10.606 0 2.929 2.929 2.929 7.678 0 10.606l-28.503 28.503c-.073.073-.147.145-.224.215l-18.102 16.664c-1.441 1.326-3.262 1.982-5.077 1.982z" fill="#fee97d"/></g><g><path d="m307.141 174.059c-1.916 0-3.831-.729-5.294-2.188-2.934-2.924-2.942-7.673-.018-10.606l17.656-17.715 28.512-28.512c2.929-2.929 7.678-2.929 10.606 0 2.929 2.929 2.929 7.678 0 10.606l-28.503 28.503-17.647 17.706c-1.465 1.47-3.389 2.206-5.312 2.206z" fill="#fee97d"/></g><g><path d="m353.299 288.964c-1.919 0-3.839-.732-5.303-2.197l-28.407-28.407-20.744-19.298c-3.033-2.821-3.204-7.567-.383-10.6s7.566-3.205 10.6-.383l20.843 19.39c.066.062.131.124.195.188l28.503 28.503c2.929 2.929 2.929 7.678 0 10.606-1.465 1.465-3.384 2.198-5.304 2.198z" fill="#fee97d"/></g><g><path d="m332.225 310.039c-1.919 0-3.839-.732-5.303-2.197l-28.503-28.503c-.046-.046-.092-.093-.137-.141l-19.999-21.075c-2.851-3.005-2.727-7.752.278-10.603 3.005-2.852 7.752-2.727 10.603.278l19.931 21.003 28.434 28.434c2.929 2.929 2.929 7.678 0 10.606-1.466 1.466-3.385 2.198-5.304 2.198z" fill="#fee97d"/></g><g><path d="m171.102 310.039c-1.919 0-3.839-.732-5.303-2.197-2.929-2.929-2.929-7.678 0-10.606l51.125-51.125c2.929-2.929 7.678-2.929 10.606 0 2.929 2.929 2.929 7.678 0 10.606l-51.125 51.125c-1.465 1.465-3.384 2.197-5.303 2.197z" fill="#fee97d"/></g><g><path d="m150.027 288.964c-1.919 0-3.839-.732-5.303-2.197-2.929-2.929-2.929-7.678 0-10.606l47.629-47.629c2.929-2.929 7.678-2.929 10.606 0 2.929 2.929 2.929 7.678 0 10.606l-47.629 47.629c-1.464 1.464-3.384 2.197-5.303 2.197z" fill="#fee97d"/></g><g><path d="m191.386 223.305h-68.556c-4.142 0-7.5-3.358-7.5-7.5s3.358-7.5 7.5-7.5h68.556c4.142 0 7.5 3.358 7.5 7.5s-3.358 7.5-7.5 7.5z" fill="#fee45a"/></g><g><path d="m193.637 172.163c-1.978 0-3.951-.777-5.425-2.32l-15.047-15.756-28.442-28.442c-2.929-2.929-2.929-7.678 0-10.606 2.929-2.929 7.678-2.929 10.606 0l28.503 28.503c.041.041.081.082.121.124l15.106 15.818c2.861 2.996 2.751 7.743-.244 10.604-1.451 1.386-3.316 2.075-5.178 2.075z" fill="#fee97d"/></g><g><path d="m217.342 151.933c-1.841 0-3.686-.674-5.134-2.034l-17.739-16.664c-.057-.053-.113-.108-.168-.163l-28.503-28.503c-2.929-2.929-2.929-7.678 0-10.606 2.929-2.929 7.678-2.929 10.606 0l28.42 28.42 17.654 16.583c3.019 2.836 3.167 7.583.331 10.602-1.476 1.571-3.469 2.365-5.467 2.365z" fill="#fee97d"/></g><path d="m335.199 187.083c-7.32-9.296-11.563-19.813-12.73-31.55-1.202-12.087-10.5-21.975-22.551-23.492-11.775-1.482-22.041-6.146-31.001-13.565-9.405-7.788-23.022-8.26-32.627-.72-9.285 7.289-19.702 11.494-31.227 12.683-12.039 1.243-21.772 10.455-23.366 22.452-1.534 11.549-6.442 21.809-14.168 30.994-7.81 9.285-8.124 22.918-.593 32.431 7.302 9.224 11.567 19.653 12.797 31.286 1.269 12.012 10.571 21.395 22.517 23.178 11.012 1.644 21.173 6.79 30.637 14.807 9.436 7.993 23.087 8.041 32.783.365 9.371-7.418 19.985-11.702 31.843-12.853 12.134-1.177 21.832-10.637 23.392-22.728 1.503-11.656 6.131-22.066 13.835-31.249 7.693-9.169 7.864-22.634.459-32.039z" fill="#fdb441"/><path d="m257.897 270.78c-11.946-1.783-21.248-11.166-22.517-23.178-1.229-11.633-5.495-22.062-12.797-31.286-7.531-9.513-7.217-23.146.593-32.431 7.726-9.185 12.634-19.446 14.168-30.994 1.594-11.997 11.327-21.21 23.366-22.452 6.546-.676 12.733-2.327 18.56-4.961-3.632-1.954-7.081-4.292-10.354-7.002-9.405-7.788-23.022-8.26-32.627-.72-9.285 7.289-19.702 11.494-31.227 12.683-12.039 1.243-21.772 10.455-23.366 22.452-1.534 11.549-6.442 21.809-14.168 30.994-7.81 9.285-8.124 22.918-.593 32.431 7.302 9.224 11.567 19.653 12.797 31.286 1.269 12.012 10.571 21.395 22.517 23.178 11.012 1.644 21.173 6.79 30.637 14.807 9.436 7.993 23.087 8.041 32.783.365 3.972-3.144 8.169-5.719 12.588-7.737-6.458-3.829-13.229-6.37-20.36-7.435z" fill="#fea613"/><path d="m243.879 256.239c-8.986-6.232-18.417-10.668-28.214-13.272-3.835-1.019-6.764-4.084-7.58-7.967-2.148-10.208-5.997-19.781-11.518-28.642-2.203-3.537-2.127-8.012.214-11.459 6.025-8.871 10.306-18.348 12.809-28.353.979-3.912 4.085-6.908 8.033-7.732 10.212-2.131 19.805-5.977 28.701-11.506 3.509-2.18 7.941-2.113 11.377.182 8.815 5.887 18.351 10.069 28.53 12.511 3.97.952 7.014 4.096 7.834 8.095 2.113 10.3 5.955 19.958 11.496 28.898 2.17 3.501 2.101 7.92-.182 11.348-5.861 8.804-10.026 18.337-12.462 28.522-.95 3.971-4.09 7.021-8.089 7.84-10.49 2.147-20.312 6.087-29.388 11.787-3.567 2.239-8.101 2.148-11.561-.252z" fill="#fec165"/><path d="m235.38 247.602c-1.229-11.633-5.495-22.062-12.797-31.286-7.531-9.513-7.217-23.146.593-32.431 7.726-9.185 12.634-19.446 14.168-30.994.035-.262.095-.515.137-.774-6.323 3.005-12.946 5.254-19.86 6.697-3.948.824-7.054 3.819-8.033 7.732-2.503 10.005-6.784 19.482-12.809 28.353-2.341 3.447-2.417 7.922-.214 11.459 5.52 8.861 9.37 18.434 11.518 28.642.817 3.883 3.745 6.948 7.581 7.967 7.002 1.861 13.812 4.675 20.412 8.394-.313-1.221-.56-2.471-.696-3.759z" fill="#fdb441"/></svg>